<?xml version="1.0" standalone="no"?>
<!DOCTYPE svg PUBLIC "-//W3C//DTD SVG 20010904//EN"
 "http://www.w3.org/TR/2001/REC-SVG-20010904/DTD/svg10.dtd">
<svg version="1.0" xmlns="http://www.w3.org/2000/svg"
 width="128.000000pt" height="128.000000pt" viewBox="0 0 128.000000 128.000000"
 preserveAspectRatio="xMidYMid meet">
<metadata>
Created by potrace 1.11, written by Peter Selinger 2001-2013
</metadata>
<g transform="translate(0.000000,128.000000) scale(0.100000,-0.100000)"
fill="#000000" stroke="none">
<path d="M80 640 l0 -560 560 0 560 0 0 560 0 560 -560 0 -560 0 0 -560z
m1040 0 l0 -480 -480 0 -480 0 0 480 0 480 480 0 480 0 0 -480z"/>
<path d="M600 1030 c0 -5 -9 -10 -20 -10 -11 0 -20 -4 -20 -10 0 -5 -9 -10
-20 -10 -11 0 -20 -4 -20 -10 0 -5 -9 -10 -20 -10 -11 0 -20 -4 -20 -10 0 -5
-8 -10 -18 -10 -10 0 -24 -9 -32 -20 -8 -11 -21 -20 -30 -20 -9 0 -22 -9 -30
-20 -8 -11 -20 -20 -28 -20 -18 0 -42 -25 -42 -44 0 -9 -4 -16 -10 -16 -6 0
-10 -103 -10 -290 l0 -290 276 0 c288 0 304 2 304 44 0 9 5 16 10 16 6 0 10
23 10 50 0 28 5 50 10 50 6 0 10 14 10 30 0 21 5 30 16 30 36 0 44 25 44 134
0 64 -4 106 -10 106 -5 0 -10 9 -10 20 0 11 -4 20 -10 20 -5 0 -10 8 -10 18 0
10 -9 24 -20 32 -11 8 -20 22 -20 32 0 10 -4 18 -10 18 -5 0 -10 9 -10 20 0
11 -4 20 -10 20 -5 0 -10 9 -10 20 0 11 -4 20 -10 20 -5 0 -10 9 -10 20 0 11
-4 20 -10 20 -5 0 -10 7 -10 16 0 23 -25 44 -54 44 -14 0 -26 5 -26 10 0 6
-27 10 -60 10 -33 0 -60 -4 -60 -10z m20 -340 l0 -270 -30 0 c-16 0 -30 -4
-30 -10 0 -6 -37 -10 -90 -10 -53 0 -90 -4 -90 -10 0 -15 -49 -12 -66 4 -11
11 -14 49 -14 170 0 97 4 156 10 156 6 0 10 16 10 36 0 36 18 64 42 64 8 0 20
9 28 20 8 11 22 20 32 20 10 0 18 5 18 10 0 6 8 10 18 10 10 0 24 9 32 20 8
12 26 20 42 20 15 0 28 5 28 10 0 6 9 10 20 10 11 0 20 5 20 10 0 6 5 10 10
10 6 0 10 -97 10 -270z m-20 -336 c0 -35 -22 -54 -64 -54 -32 0 -36 3 -36 25
0 37 20 54 63 55 33 0 37 -3 37 -26z m-280 -34 c0 -11 -4 -20 -10 -20 -5 0
-10 9 -10 20 0 11 5 20 10 20 6 0 10 -9 10 -20z"/>
</g>
</svg>
